/* XPM */
static const char * hbook_closed_xpm[] = {
"16 16 6 1",
" 	c None",
".	c #000000",
"+	c #800080",
"@	c #C0C0C0",
"#	c #808080",
"$	c #FFFFFF",
"                ",
"       ..       ",
"     ..++.      ",
"   ..+++++.     ",
" ..++++++++.    ",
".@++++++++++.   ",
".+@++++++++++.  ",
".++@++++++++++. ",
".+++@+++++++++..",
".++++@++++++..# ",
" .++++@+++..#$# ",
"  .++++@..#@$@..",
"   .+++.#$@$@.. ",
"    .++.$@$..   ",
"     .+.#..     ",
"      ...       "};
