/* XPM */
static char * helpicon_xpm[] = {
"16 16 22 1",
" 	c None",
".	c #808080",
"+	c #959595",
"@	c #C0C0C0",
"#	c #B0B0B0",
"$	c #EFEFEF",
"%	c #FFFFFF",
"&	c #DFDFDF",
"*	c #8080FF",
"=	c #BFBFBF",
"-	c #D0D0D0",
";	c #3030EF",
">	c #BFBFFF",
",	c #0000FF",
"'	c #505050",
")	c #B0B0EF",
"!	c #7070EF",
"~	c #707070",
"{	c #404040",
"]	c #606060",
"^	c #555555",
"/	c #2B2B2B",
"    .+@@@+.     ",
"   #$%%%%%$#    ",
"  &%%$***$%%=   ",
" -%%%;$>,;%%%#  ",
"+%%%%,,$,,%%%%' ",
"@%%%%))!,>%%%%..",
"@%%%%%%,)%%%%%..",
"#%%%%%%*%%%%%%~.",
".$%%%%),)%%%%${.",
" .%%%%),)%%%%]..",
"  ^$%%%%%%%$].. ",
"   /~#%%%#~{..  ",
"    .]{#%{...   ",
"       ^%{.     ",
"        ^{.     ",
"         ..     "};
