/* XPM */
static char *manual_xpm[] = {
/* width height num_colors chars_per_pixel */
"    32    32      232            2",
/* colors */
".. c None",
".# c #3482c4",
".a c #9c9ebc",
".b c #444244",
".c c #4c4a4c",
".d c #9cd2f4",
".e c #5caeec",
".f c #d4d6ec",
".g c #7c8294",
".h c #0c428c",
".i c #0c529c",
".j c #bcd6ec",
".k c #3c6eb4",
".l c #84aed4",
".m c #d4eefc",
".n c #043684",
".o c #449ad4",
".p c #9cc2e4",
".q c #64666c",
".r c #2472b4",
".s c #6c9acc",
".t c #24529c",
".u c #acd6f4",
".v c #0c5ab4",
".w c #bce2fc",
".x c #7cc2f4",
".y c #1c6aac",
".z c #242224",
".A c #bcc2e4",
".B c #eceef4",
".C c #6c6e7c",
".D c #0c4a94",
".E c #d4e2f4",
".F c #5ca6e4",
".G c #6cb2ec",
".H c #848694",
".I c #1c529c",
".J c #acdaf4",
".K c #2c3234",
".L c #f4fafc",
".M c #0c52ac",
".N c #bcdefc",
".O c #94cef4",
".P c #747a84",
".Q c #347ac4",
".R c #9cc6e4",
".S c #1c6abc",
".T c #8c92ac",
".U c #141214",
".V c #3c8ecc",
".W c #9cb6d4",
".X c #545a64",
".Y c #2462ac",
".Z c #7cbaec",
".0 c #54a6e4",
".1 c #cce6f4",
".2 c #8cc6f4",
".3 c #bccae4",
".4 c #ecf6fc",
".5 c #1c4e94",
".6 c #a4dafc",
".7 c #1462b4",
".8 c #d4deec",
".9 c #14428c",
"#. c #0c4aa4",
"## c #a4d2f4",
"#a c #ccd2ec",
"#b c #043e8c",
"#c c #549ee4",
"#d c #4c76b4",
"#e c #2c7ebc",
"#f c #1c5eac",
"#g c #f4f2f4",
"#h c #e4e6f4",
"#i c #84a6d4",
"#j c #b4dafc",
"#k c #7c7a87",
"#l c #4476b4",
"#m c #acaed4",
"#n c #448ad4",
"#o c #64aee8",
"#p c #0c469c",
"#q c #14529c",
"#r c #e4eef4",
"#s c #6caae4",
"#t c #b4d2f4",
"#u c #c4e2f8",
"#v c #246eb0",
"#w c #64aae4",
"#x c #848ea4",
"#y c #1456ac",
"#z c #acc6e4",
"#A c #94badc",
"#B c #ccceec",
"#C c #74b6ec",
"#D c #0c0a0c",
"#E c #3c8ac4",
"#F c #54525c",
"#G c #0c4693",
"#H c #4c9adc",
"#I c #b4badd",
"#J c #4c72ac",
"#K c #7c9ecc",
"#L c #145aac",
"#M c #84c2f2",
"#N c #2c2a2c",
"#O c #ecf2fb",
"#P c #747684",
"#Q c #144e9c",
"#R c #dce2f4",
"#S c #5caae8",
"#T c #4c92d8",
"#U c #949ab4",
"#V c #0c56b3",
"#W c #ccdef4",
"#X c #347ecc",
"#Y c #246abc",
"#Z c #9496b0",
"#0 c #1c1a1c",
"#1 c #5c626c",
"#2 c #84beee",
"#3 c #c4cae7",
"#4 c #6c96c4",
"#5 c #5c7eb4",
"#6 c #94aed4",
"#7 c #9ccef4",
"#8 c #acb6dc",
"#9 c #2c5a9c",
"a. c #3c86d4",
"a# c #2c76bc",
"aa c #3c76b4",
"ab c #4492dc",
"ac c #c4def0",
"ad c #3c7ebc",
"ae c #1c66ac",
"af c #c4d2ec",
"ag c #446aac",
"ah c #8cb2dc",
"ai c #749acc",
"aj c #74aee4",
"ak c #1c62bc",
"al c #3c3a3c",
"am c #dceefc",
"an c #c4c6e4",
"ao c #343234",
"ap c #fcfafc",
"aq c #5c5a64",
"ar c #2c7acc",
"as c #b4cae4",
"at c #dcdef3",
"au c #0c3e91",
"av c #f4f6fc",
"aw c #8ca6d4",
"ax c #a4cef4",
"ay c #b4b6dc",
"az c #9ca2c4",
"aA c #44464c",
"aB c #4c4e54",
"aC c #9cd6f8",
"aD c #d4daf2",
"aE c #0c56a4",
"aF c #043a86",
"aG c #646a74",
"aH c #6c9ed4",
"aI c #1c6eb4",
"aJ c #6c7281",
"aK c #0c4e9c",
"aL c #848a9c",
"aM c #acdefc",
"aN c #94d2fc",
"aO c #747e8c",
"aP c #54aaec",
"aQ c #cceafc",
"aR c #8ccaf8",
"aS c #0c4ea6",
"aT c #a4d6f7",
"aU c #ccd6ee",
"aV c #b4defa",
"aW c #7c7e8c",
"aX c #447abc",
"aY c #64b2ec",
"aZ c #1456a4",
"a0 c #e4f2fc",
"a1 c #b4d6f1",
"a2 c #c4e6fb",
"a3 c #74baf3",
"a4 c #4c9ee1",
"a5 c #b4bee4",
"a6 c #84c6f4",
"a7 c #4c96dc",
"a8 c #949eb9",
"a9 c #246ec0",
"b. c #c4ceec",
"b# c #3c3e3f",
"ba c #040604",
"bb c #242624",
"bc c #bcc6e4",
"bd c #d4e6f4",
"be c #1c569c",
"bf c #8c96ac",
"bg c #141614",
"bh c #7cbeec",
"bi c #54a2e4",
"bj c #e4eaf4",
"bk c #0c0e0c",
"bl c #54565c",
"bm c #145eac",
"bn c #2c2e2c",
"bo c #1c1e1c",
"bp c #1c66bc",
"bq c #dcf2fc",
"br c #343634",
"bs c #fcfefc",
"bt c #5c5e64",
"bu c #2c7ecc",
"bv c #1462ac",
"bw c #0c52a4",
"bx c #acd6fc",
"by c #0c5abc",
"bz c #1c6ab4",
"bA c #eceefc",
"bB c #0c4a9c",
"bC c #5ca6ec",
"bD c #acdafc",
"bE c #0c52b4",
"bF c #747a8c",
"bG c #9cb6dc",
"bH c #cce6fc",
"bI c #d4def4",
"bJ c #6cb6f4",
"bK c #1c5eb4",
"bL c #f4f2fc",
/* pixels */
"................................................................",
"......................#0.q.g#U#U#Z.T.P.bba......................",
"..................aB#Za5aU#h.B.B.Bbjatan#8#P#N..................",
"...............baLbc.Bbsapapapapapap.Lapav.8#I.C................",
"............#1#I#hbsapap.4bq.maQaQ.m#ravavav#gb.aW.K............",
"...........C.Aavapbsa0a2aM.J.6aTaCaTaT.Ja2#Oav#gaD#8br..........",
"........bta5.Lap.La2.6aCaVa2bHbHbHa2#j.daR#7.1#ObLaD.Hbg........",
"......bn#8#gap.4bDaNaT.w.NaV.w.w.w.NaV#j.u#M#Ma1.B#O#a#P........",
"......aWatap.LaTaRaTbx.ubx.J.w.w#u.waT###7##.Z.Ga1.Bbj.Abl......",
"....br.A.L.L#ja6#7#7#7.O.O#7a0bsbsbsbsam#7#2#2#o.F#W#rat.Tbk....",
".....g#Rap#r.x#M.2#M#M#M#2bhambsbsbsbsbsbs.R#w#s#caj#hbj.Ab#ba..",
"..bkayavav##bJ.xa3a3a3#C#CbJax.u##bH.Lbsbs#r#Ta7aba..j#h#abF.Uba",
"..b##3avavbJbJbJaYaYaYaYaY#o#Sbibi#c#2bsbsbsad#Xa..#aj#hbIaz#0ba",
"...q#a.4bd#SaP#c#H#cbC.eaY.eaP.0a4a4.Gbsbsbs#Ya9arbu#n#h#R#8bn.U",
"..#kaD#g#tab.##v.r#e.V.o.Fbhbha3#C#2acbsbsbs.Yakbpbp.S#R#R#I.bbg",
"...g.8bL.pa#aeae#va##Eacbsbsbsbsbsbsbsbsbs.l#yaZ.iaEbKbI#Ra5aAbo",
"..aWaD.B#Aaebmbv.y.r.Rbsbsbsbsbsbsbsbs#Oai#Q#G#QaK.i#y.8at#IaA.z",
"...q#abA#z#fbv#fbzaI.jbsbsas#4.s#4#4#l.h.h#G.D.DaKaK.Y.8bI#8br.z",
"..b#bc.B.E#f#fbvae.S.jbsbs.s.h.hau.h.h.h#G.DbBaSaKbB#laD.f.aao.z",
"..ba#8#h#haXaZ.7bzbzaIaXaZ#G.h.h#G#G#GbBaKaSaSbwbw#b#iaD#3aJ.K.z",
"....aLaDbj.W#Qbm.7a9.4bs#Oaa#pbBaSaSaSbw.Mbw.MaS#Gbe#aaDa5.caobo",
".....ba5#hbI.k#q#L.Qbsbsbs#4#.aSbw#V#V#V#V#V.MbB#b#K#W#B#xbrbnbo",
".......H#a#has.I#G#VaHasah#yaS.M#V#V#V#V#V.M#.#b#J#BaU#I.Xao#Nbg",
"......al#I.8at#6#GaubBaS#.aS.M#V#Vby.v#V.M#paF#9af.fbc#Paoaobb.U",
"........aGa5at.8.W.5.n#b#p#.bEbE#V#VbE#.#baF#db.aUb.#8.bbr#N#0ba",
"........#D#Pa5aDaD.3#5.9aF.n#b#b#b#b.naF.tawb.#W#3#8#Fao.Kbb.Uba",
"..........bk.C#8aUaDaU.3#Kag#9.I#9#9#5bGaf#aaU.AaWaBbrao#Nbg#D..",
"..........babgaqbf.A#aaDaDaUafb.b.afaUaUaU#3#IaJb#braobnbo#D....",
"............babg.z.qa8#Ibc#Bb.aU#ab.#3.A#8aO.caobrao#Nbo.U......",
"..............#Dbg.zbn.c.C#x.T#maz.T.gaqalaobraobn#Nbobk........",
"................babk#0bbbnaoaobraoaobraobrbrbn#Nbb#0#Dba........",
"....................bk.Ubobbbbbnbnaobnbnbnbb.zbg.Uba............"
};
