/* XPM */
static char * manual_xpm[] = {
/* width height num_colors chars_per_pixel */
"32 32 8 1",
/* colors */
" 	s background	c None",
".	c #800080",
"X	c black",
"o	c #808080",
"O	c #808000",
"+	c #ffff00",
"@	c #c0c0c0",
"#	c white",
/* pixels */
"               ..X              ",
"              .o..XX            ",
"             .o.....XX          ",
"            .o........XX        ",
"           .o...........XX      ",
"          .o..............XX    ",
"         .o.....O+++O.......XX  ",
"        .o.....+++++++........XX",
"       .o.....+++OOO+++........X",
"      .o.....O++....+++.......X ",
"     .o........O...O+++......XX ",
"    .o..........O+++++......XoX ",
"   .o.........O+++++O......Xo@X ",
"  .o.........O+++OO.......Xo@@X ",
" .o............OO........Xo@@@X ",
".XXX........O+O.........Xo@@@@X ",
".XooXX......+++.........o@@@@@XX",
".X@@ooXX....O+O.......Xo@@@@@X.X",
".X@##@ooXX...........Xo@@@@@X.X ",
".X@####@ooXX........Xo@@@@@X.X  ",
".X@######@ooXX.....Xo@@@@@X.X   ",
"...oo######@ooXX..Xo@@@@@X.X    ",
" XX..oo######@ooXXo@@@@@X.X     ",
"   XX..oo######@oo@@@@@X.X      ",
"     XX..oo#######@@@@X.X       ",
"       XX..oo#####@@@X.X        ",
"         XX..oo###@@X.X         ",
"           XX..oo#@X.X          ",
"             XX..oX.X           ",
"               XX..X            ",
"                 XX             ",
"                                "};
