/* XPM */
static char *xchm_48[] = {
/* width height num_colors chars_per_pixel */
"    48    48      238            2",
/* colors */
".. c None",
".# c #9ca4c4",
".a c #4c4a4c",
".b c #1462b1",
".c c #9cd2f6",
".d c #7c8294",
".e c #d4d6ec",
".f c #0c428e",
".g c #2c56a4",
".h c #7caed4",
".i c #0c52a2",
".j c #3462ac",
".k c #1c72bc",
".l c #c4d2ec",
".m c #9cbee4",
".n c #649ad0",
".o c #042f84",
".p c #d4eefc",
".q c #4c86c9",
".r c #646670",
".s c #1c56ac",
".t c #7cc2f3",
".u c #2464b4",
".v c #bcc3e4",
".w c #6caee4",
".x c #0c5aac",
".y c #242424",
".z c #0c4a99",
".A c #849ecc",
".B c #3c8ed1",
".C c #1c6ab6",
".D c #54a6e9",
".E c #9cc6ec",
".F c #bce3fc",
".G c #dce3f4",
".H c #eceef6",
".I c #6cbaf4",
".J c #8c8ea7",
".K c #7cbaee",
".L c #8ccefc",
".M c #0c52b4",
".N c #2c7ac0",
".O c #64a7e4",
".P c #2c3234",
".Q c #3c82cc",
".R c #5c9acc",
".S c #b4cae8",
".T c #1465bc",
".U c #4c92d4",
".V c #8cc2ec",
".W c #0c5ab9",
".X c #0c4aa4",
".Y c #747684",
".Z c #5c5a64",
".0 c #14529e",
".1 c #acdaf9",
".2 c #f4fafc",
".3 c #64aeea",
".4 c #bcdaf4",
".5 c #043a84",
".6 c #246bb6",
".7 c #bccaec",
".8 c #141414",
".9 c #0c459f",
"#. c #8cb0d8",
"## c #5474b4",
"#a c #a4cee4",
"#b c #cce4f8",
"#c c #e4e6f4",
"#d c #8c96b0",
"#e c #54a2e4",
"#f c #3484d1",
"#g c #a4dafc",
"#h c #d4def3",
"#i c #2c72c4",
"#j c #749ccc",
"#k c #144b92",
"#l c #1c6cc6",
"#m c #ecf6fc",
"#n c #6cb6f2",
"#o c #9cb1d9",
"#p c #4c5254",
"#q c #1c64ac",
"#r c #a4d5f5",
"#s c #748ec4",
"#t c #2474ca",
"#u c #acbadc",
"#v c #84caf4",
"#w c #145ba3",
"#x c #84aadc",
"#y c #6c727c",
"#z c #4496dc",
"#A c #5caaec",
"#B c #94bae4",
"#C c #247acc",
"#D c #74a6dc",
"#E c #b4ddf9",
"#F c #ccceeb",
"#G c #848a9f",
"#H c #7cb6ec",
"#I c #0c54ac",
"#J c #64a2e4",
"#K c #e4f0f9",
"#L c #548ed4",
"#M c #1c5ea4",
"#N c #84c4f4",
"#O c #242a2c",
"#P c #448ed0",
"#Q c #c4e5fc",
"#R c #d4eafc",
"#S c #f4f2fc",
"#T c #84bef4",
"#U c #3c8ad8",
"#V c #549de1",
"#W c #1c64be",
"#X c #5496dc",
"#Y c #8ccaf4",
"#Z c #145db5",
"#0 c #347ecc",
"#1 c #143a8c",
"#2 c #949bb6",
"#3 c #4466a4",
"#4 c #5c7ab4",
"#5 c #acb6dc",
"#6 c #0c0c0c",
"#7 c #244e94",
"#8 c #1c1c1c",
"#9 c #3c5ea4",
"a. c #ccdcf0",
"a# c #447ac4",
"aa c #346ab4",
"ab c #74b6e4",
"ac c #444a4c",
"ad c #7c7e8c",
"ae c #64626c",
"af c #94b6dc",
"ag c #4c7abc",
"ah c #b4c2e4",
"ai c #9caad4",
"aj c #043684",
"ak c #9ccef6",
"al c #cceafc",
"am c #e4eaf4",
"an c #74aed4",
"ao c #5ca2d4",
"ap c #3484c4",
"aq c #44464b",
"ar c #5cafed",
"as c #848699",
"at c #14468c",
"au c #84aedc",
"av c #4c9be1",
"aw c #ccd5ee",
"ax c #a4c2dc",
"ay c #6c9ecc",
"az c #548acc",
"aA c #2c64ac",
"aB c #a4caec",
"aC c #b4d6f4",
"aD c #74bbf3",
"aE c #94d1f9",
"aF c #343434",
"aG c #94c6f4",
"aH c #74b2ec",
"aI c #144ea4",
"aJ c #7c7a8c",
"aK c #0c3c8c",
"aL c #c4cce7",
"aM c #14469c",
"aN c #3c3d3f",
"aO c #54545c",
"aP c #b4bbde",
"aQ c #7ca8da",
"aR c #5c9ee0",
"aS c #345aa4",
"aT c #0c3284",
"aU c #dcf0fc",
"aV c #c4c6e4",
"aW c #8ca2cc",
"aX c #4c95dc",
"aY c #1456ac",
"aZ c #fcfdfc",
"a0 c #64aff4",
"a1 c #145cac",
"a2 c #2c2d2c",
"a3 c #4492dc",
"a4 c #3c62a4",
"a5 c #2472b6",
"a6 c #9496b0",
"a7 c #dcdef3",
"a8 c #74b6ec",
"a9 c #8caad4",
"b. c #74727e",
"b# c #2c7ad1",
"ba c #84b6e4",
"bb c #245eac",
"bc c #dceaf7",
"bd c #448ad4",
"be c #a4cef4",
"bf c #4482cc",
"bg c #f4f6fc",
"bh c #94caf4",
"bi c #547abc",
"bj c #4c4e50",
"bk c #1466b4",
"bl c #9cd6fc",
"bm c #d4daf3",
"bn c #0c4694",
"bo c #7cb2dc",
"bp c #0c56a4",
"bq c #4c8acc",
"br c #646a74",
"bs c #1c5ab2",
"bt c #7cc6f4",
"bu c #1c4694",
"bv c #0c4e9c",
"bw c #6c6e7a",
"bx c #1c6eba",
"by c #54aaec",
"bz c #9ccaf1",
"bA c #acd6f8",
"bB c #ecf2fc",
"bC c #8c92a8",
"bD c #7cbef2",
"bE c #0c56b5",
"bF c #2c7ec4",
"bG c #b4cee8",
"bH c #4c96cc",
"bI c #8cc6f4",
"bJ c #6cb2ed",
"bK c #0c4ea9",
"bL c #747a8a",
"bM c #5c5e67",
"bN c #14569e",
"bO c #acdefc",
"bP c #64b2ec",
"bQ c #3c76bc",
"bR c #bcdefb",
/* pixels */
"................................................................................................",
"................................................................................................",
".....................................8bj#yaJ.J#2a6bLad.Za2......................................",
"...............................8.r#daP#Fbma7am.H.H.Ga7.l.v.#.YaF................................",
"..........................#8#yaPaw.HaZaZaZaZaZaZaZaZaZbgaZbB#h.vbCaq............................",
"........................bwaPbmaZaZaZaZaZaZaZbgaZbgbgaZbgaZbgaZ.2#c.v.daF........................",
"....................aF.dawbgaZaZaZbgaZbgbg#m#KaUaUbBbBaZbgbgbgbgbgbga7aPbM......................",
"..................aO#5#caZaZaZbgaZ#m.p.FbO.1#g#g#r#g#g.1#QaUbgbgbgbgbg.HaP#y....................",
"................bMaP.HaZaZaZaZbB.F.1bl.L#N.taD#NbDaDbD#NbI.c#r#R#Sbg#S#SbBaVbL..................",
"...............ZaPbBaZaZaZbg#Q#gaE#N#N.c#E#Q#b#Q#b#Q.4ak.tabbD#Y.cbc#mbgbB#SaL#y................",
".............P#5.HaZaZbgbBbOaE#N#N.1bR.F#Q#Q#Q.F#Q.F.F.F.4.1.tbJbD#Na.bBbBbB.H.vbw..............",
"............ad.GaZbgaZ#Kbl#Y.t.c#E#E#E#E#E.F.F.F.F.F.4#E#EaCbAbz.3abbDbA#S.HbBamaPaq............",
"...........raVaZbgaZbB.c#vbD#rbAbA#rbAbA#E.F#m#m#m#maU.pbR#r#r#abh.3#A.w.4.H.H.Hbm#G............",
"..........#5#SbgaZbg.c#NaDak.cak.cak.cbe#r.FaZaZaZaZaZaZaZ.2bRbh.V.Vao#A.3a..H.H.H.vbM..........",
".........raw.2aZbgbRbtaD#YbhbhbhbhaGaG#YbhbAaZaZaZaZaZaZaZaZaZ#b.K#HaHav#e.wamam#Ka7#2#6........",
"........#5#SbgbgbBbtaDbDbIbI#N#N#T.t#T#N#TakaZaZaZaZaZaZaZaZaZaZ#a.w.O#J#zav.E.Ham#c.vaq#6......",
"......aN.vbgbgbg#raD.IbDbDbDbDaD.Ka8aDaHbJanbaaQaQau.maUaZaZaZaZaZ#L#Xaoa3a3av.G#camawad.8......",
"......aJa7bgbgbgaDbJ#naDaD#nbJbJbJbJ.3.3.OaR#Xbq.q.qbq.UaBaZaZaZaZ#Dbd#Pa3#U#UaBam#c#c#5#8#6....",
".......#.Hbgbg#Q.3a0bJbPa0a0a0.Oar#A.O#A#A#e#VaX.UaXaXav.KaZaZaZaZ.n.Q.Q#U#f#f#J#c#c.G.vbj#6....",
".....8aPbgbg#Sbha0ara0#A#A#A.Dby#A#A#A#A#A.D#e#e#e#e#e.D.KaZaZaZaZ.R#ib##fb##f#f.G.G#caLbw#8....",
"....aF.vbg#S#maHar#A.D#e.D#e.D.DbyarararbyarbybybybybybybDaZaZaZaZaz.6#t#tb##C#tbG.G.Gawad#8#6..",
"....aOaL.HbgbB#V#eav.B#f#f#f.B#z#eararararararbybyar.t.c#KaZaZaZaZa#.u#l#t#t#t#l#B.G#caw.J#O#6..",
".....ZaLbgbB.H#z#zb##q.6.Ca5.Nap.Bab#EalaZaZaZaZaZaZaZaZaZaZaZaZa.bs#W#l#l.T#l#l#x.G.G.e#da2.8..",
"....bM#FbB#Sam#UbF#q#wbN#w#qa5ap#aaZaZaZaZaZaZaZaZaZaZaZaZaZaZbBbQbs#q#W#w.x#Z.TaQ.Ga7a.a6a2#8..",
"....bMaL.HbB.H#0.6#qbN#w#w#qa5.RaZaZaZaZaZaZaZaZaZaZaZaZaZaZ.mbb.s#ZaY.i.i.i.i#Z#xa7a7aw.Ja2#8#6",
"....acaVbB.H.Hbf.6#qbp#w.b#qa5boaZaZaZaZaZaZaZaZaZaZ.7ax#jaAaIaI.0bv.0.i.i.0.iaYafa7#haw#Ga2#8..",
"....#OaP.H.H.H#L.6#qbN.x#w.C.C.haZaZaZaZ#7.fatat#k#k#k#kat#kaI.0.0bNbp.i.i.i.i.X.7#ha7aL#ya2#8#6",
"....#6aPam.HamaQ.u.b#w#w.b#qbxboaZaZaZaZ.z#k#kbN.sbNbN.sbN#w#w#w.ba1a1bNbp.ibK.sbm#hbm.vaea2#8..",
"......bCa7am.H.S.u#wa1a1.b.CbxbHan#Day#jbN#M#q#q#q#q#q.b#q#q.Cbx.Cbka1.x.i.i.zaga7bm#haPaqa2#8#6",
"......br#Famam#caa#Ma1a1bkbxa5aobcaZ#R.n#q#q.C.CbxaZbk.C.C.C.kbxbxbk.W#I.i.z.9#o#hbm.e#2aFa2.8..",
"......#8aPam#cama9aY#w#Zbk.CapaZaZaZaZaZ.qaZaZaZ.baZaZaZaZ.TaZaZaZaZaZ.ibKbn.gbmbmbm.vbraF.y.8..",
".........Jbmam#c.G.j.0#Mbk.T#PaZaZaZaZaZayaZaY#IbEaZ#I#IaZ#IaZ#IaZ#IaZ.zbnaT#.bmbmbmaPaNaF.y.8..",
"........aq.v.G#c#cafaMbN#Z#Z#WbBaZaZaZaZbQaZaZaZbKaZbKbKaZbKaZbKaZ.XaZbn.5a4.ebma.aL.YaFa2#8#6..",
"..........#G.e.G#c.Gbi.9.0.x.x.u#..S#.aA.f.9.X.z.X.X.X.XbK.X.X.X.X.9.f.5#1ahawaw.e#5aqaFa2.8....",
"..........aqaP.G.G.Ga7aS.faI.i#I.X.9.9.9.9.X.XbKbKbK#IbKbKbKbK.X.X.f.5aTaiawawbm.vbwaFaF.y#6....",
"............#y.v.G.G.Gaw#9aKbnbKbKbK.XbKbK#I.M.MbE.M.MbE.M.M.MbK.fajaTaWawawawaLasaFaFa2#8......",
"............#6.YaLa7.G.G#h#4aT.fbn.i.MbE.MbEbEbEbEbE.WbEbE#I.z.f.obu#uawaw.eaw#5aOaFa2.y#6......",
"...............yadaLa7#ha7bmaWbu.o.fbnbK.MbE.W.W.WbE#IbK.z.faj.o##.law.eawaw#5bMaFaFa2.8........",
"................aNad.7a7#h#h#hbm#s#1.o.5.5.fbnbn.f.faK.5.o.o#3ahaw.eawa.aL#5aeaFaFa2#8#6........",
"................#6.ybLaPbmbm#hbm#h#h#u#4#7at.o.o.oaKbu#9.AawawawbmawawaV#5aOaFaFa2.y#6..........",
"..................#6#8b.aPaL#hbmbmbmbmawbm.eawawa..eawa.aw.ea.awaw#FaP.YaqaFaFa2#8.8............",
"....................#6#8aqbLaPaLbm.ea.bm.ea.bm.e.ea.aw.eawawawaw.v#d.ZaFaFaFa2.y.8..............",
"......................#6#8.yaO#GaP.vaLbma.awawa.awawbmawawaVaP.#aeaFaFaF.P.y#8.8................",
"........................#6.8.ya2aNbw.J#5aPaP.v.v.vaPaP#5#2bLbjaFaFaFaFa2.y#8#6..................",
"............................#6#8.ya2aFaFaq.a.ZbM.Z#p.aaNaFaFaFaFaFa2.y.y.8#6....................",
"..............................#6#6#8.ya2a2a2.PaFaFaFaFaFaFaFa2a2.y#8.8#6........................",
"..................................#6#6.8#8.y.y.y.y#O.y.y.y.y#8.8.8#6............................",
"..........................................#6#6.8.8.8.8.8#6#6#6.................................."
};
