/* XPM */
static const char * xchm_16_xpm[] = {
"16 16 175 2",
"  	c None",
". 	c #A3AACC",
"+ 	c #8C93BA",
"@ 	c #9097BE",
"# 	c #AAAECC",
"$ 	c #828BB7",
"% 	c #B2B9D4",
"& 	c #CFD3E3",
"* 	c #E9EBF4",
"= 	c #E2E7F1",
"- 	c #C9D0E2",
"; 	c #A7AECF",
"> 	c #98A2C5",
", 	c #AFB2CF",
"' 	c #969DC3",
") 	c #E7EAF2",
"! 	c #E9F5FE",
"~ 	c #D1ECFB",
"{ 	c #C4E9FB",
"] 	c #C3E7FB",
"^ 	c #D1EBFB",
"/ 	c #E9F4FA",
"( 	c #D5D8EA",
"_ 	c #8C95BE",
": 	c #B5B9D3",
"< 	c #9BA3C6",
"[ 	c #F5F7FC",
"} 	c #C4E7FB",
"| 	c #B7E2FB",
"1 	c #CCEAFC",
"2 	c #D2ECFC",
"3 	c #D0EAFC",
"4 	c #C6E6FB",
"5 	c #A4D6F6",
"6 	c #C4E0F6",
"7 	c #E6E8F4",
"8 	c #8992BC",
"9 	c #8189B6",
"0 	c #ECEDF5",
"a 	c #B7E0FA",
"b 	c #ACDBF9",
"c 	c #B5DFFB",
"d 	c #ACDAF9",
"e 	c #E6F4FC",
"f 	c #FFFFFF",
"g 	c #F3F9FE",
"h 	c #CEE7FA",
"i 	c #84C0ED",
"j 	c #B3D3F1",
"k 	c #C9CDE3",
"l 	c #989FC3",
"m 	c #ABB2D0",
"n 	c #DEEDFA",
"o 	c #81C5F7",
"p 	c #91CDF6",
"q 	c #85C5F5",
"r 	c #7DC1F2",
"s 	c #90CAF3",
"t 	c #92C9F1",
"u 	c #B4D8F5",
"v 	c #84B8E6",
"w 	c #4F96D9",
"x 	c #D5DEF0",
"y 	c #8B94BE",
"z 	c #A1AAC7",
"A 	c #CBD0E3",
"B 	c #A3D0F5",
"C 	c #66B2EE",
"D 	c #65B2EB",
"E 	c #60B1EB",
"F 	c #5DADEB",
"G 	c #55A7E8",
"H 	c #489BE3",
"I 	c #82B9E9",
"J 	c #649FDA",
"K 	c #2C78CA",
"L 	c #9ABBE3",
"M 	c #A6AFD0",
"N 	c #939ABF",
"O 	c #D7DBEB",
"P 	c #76AEE3",
"Q 	c #3986CB",
"R 	c #2F7DBE",
"S 	c #7CB5DD",
"T 	c #F0F7FC",
"U 	c #BAD5ED",
"V 	c #296DBD",
"W 	c #195DB2",
"X 	c #6E9CD2",
"Y 	c #AEB5D5",
"Z 	c #AAB0CD",
"` 	c #989FC2",
" .	c #CFD3E6",
"..	c #629AD1",
"+.	c #1A63AA",
"@.	c #1863AA",
"#.	c #B4D1E7",
"$.	c #C5DBEC",
"%.	c #447FBB",
"&.	c #4A84C0",
"*.	c #2F6CB4",
"=.	c #1556A5",
"-.	c #0F4D9B",
";.	c #0D4A97",
">.	c #6B95C9",
",.	c #ABB3D4",
"'.	c #AFB4CF",
").	c #ABB2CE",
"!.	c #B9BFDA",
"~.	c #7DA5D5",
"{.	c #155AA8",
"].	c #125BAB",
"^.	c #7CACD6",
"/.	c #6A9DCC",
"(.	c #0D4D9C",
"_.	c #0C4998",
":.	c #0C4896",
"<.	c #0A4797",
"[.	c #094798",
"}.	c #0A4395",
"|.	c #96B0D6",
"1.	c #99A2C8",
"2.	c #9099C0",
"3.	c #CDDBED",
"4.	c #1B53A2",
"5.	c #0C50A6",
"6.	c #D6E6F2",
"7.	c #D6E5F2",
"8.	c #0B4BA0",
"9.	c #0A4B9F",
"0.	c #0949A0",
"a.	c #09459A",
"b.	c #24549E",
"c.	c #C6D1EA",
"d.	c #828BB8",
"e.	c #BAC1DD",
"f.	c #89A4D0",
"g.	c #0D3D8F",
"h.	c #0946A1",
"i.	c #0948A3",
"j.	c #0949A6",
"k.	c #0849A6",
"l.	c #07469E",
"m.	c #103D8C",
"n.	c #A4B9DC",
"o.	c #A2ABCF",
"p.	c #AFB6D0",
"q.	c #818AB6",
"r.	c #C1C7E2",
"s.	c #8FA6D0",
"t.	c #1B4793",
"u.	c #073B8E",
"v.	c #074096",
"w.	c #074197",
"x.	c #053A8F",
"y.	c #2A5299",
"z.	c #A8BADD",
"A.	c #AEB6D7",
"B.	c #AAADCB",
"C.	c #7F88B5",
"D.	c #A6AFD1",
"E.	c #C0CBE7",
"F.	c #A3B5D8",
"G.	c #728FC0",
"H.	c #7B98C5",
"I.	c #B2C2E3",
"J.	c #C2CDE8",
"K.	c #9DA5CB",
"L.	c #ACB4CE",
"M.	c #7F88B6",
"N.	c #949DC5",
"O.	c #9CA5CB",
"P.	c #9BA4CA",
"Q.	c #939CC4",
"R.	c #B3B9D2",
"            . + @ #             ",
"        $ % & * = - ; >         ",
"    , ' ) ! ~ { ] ^ / ( _ :     ",
"    < [ } | 1 2 3 4 5 6 7 8     ",
"  9 0 a b c d e f g h i j k l   ",
"  m n o p q r s t u f v w x y   ",
"z A B C D E F G H I f J K L M   ",
"N O P Q R S T f f f U V W X Y Z ",
"`  ...+.@.#.$.%.&.*.=.-.;.>.,.'.",
").!.~.{.].^./.(._.:.<.[.}.|.1.  ",
"  2.3.4.5.6.7.8.8.9.0.a.b.c.d.  ",
"  . e.f.g.h.i.i.j.k.l.m.n.o.p.  ",
"    q.r.s.t.u.v.w.x.y.z.A.B.    ",
"      C.D.E.F.G.H.I.J.K.B.      ",
"        L.M.N.O.P.Q.C.R.        ",
"                                "};
