/* XPM */
static char * xchm_32_xpm[] = {
"32 32 560 2",
"  	c None",
". 	c #C4CCE3",
"+ 	c #B9BFE1",
"@ 	c #B7BDDE",
"# 	c #BBC0DF",
"$ 	c #CCCDE5",
"% 	c #B9BFDF",
"& 	c #B6BDE0",
"* 	c #D1D6EB",
"= 	c #DFE2F1",
"- 	c #ECEDF6",
"; 	c #ECF0F7",
"> 	c #EBECF6",
", 	c #E7E9F5",
"' 	c #D9DDEF",
") 	c #C3C8E5",
"! 	c #AEB6DC",
"~ 	c #BFC4E2",
"{ 	c #C1C7E5",
"] 	c #EBEDF6",
"^ 	c #FCFCFE",
"/ 	c #FBFCFE",
"( 	c #FBFBFC",
"_ 	c #FAFBFC",
": 	c #FAFAFC",
"< 	c #F9FAFC",
"[ 	c #F9F9FC",
"} 	c #F5F6FB",
"| 	c #D7DCED",
"1 	c #B2BADD",
"2 	c #CDD0E6",
"3 	c #B3BBDF",
"4 	c #E4E7F4",
"5 	c #F1F7FC",
"6 	c #DFF1FC",
"7 	c #D7EDFC",
"8 	c #CDEAFB",
"9 	c #CCEAFB",
"0 	c #D9EDFB",
"a 	c #E1F0FB",
"b 	c #F3F6FB",
"c 	c #F6F7FB",
"d 	c #F5F7FB",
"e 	c #F1F2FA",
"f 	c #C9CEE8",
"g 	c #C4C9E2",
"h 	c #CCD1E6",
"i 	c #BAC0E1",
"j 	c #F2F3FA",
"k 	c #E9F4FC",
"l 	c #C0E6FB",
"m 	c #ADDDFB",
"n 	c #A8DBFA",
"o 	c #A2D9F8",
"p 	c #A4D7F7",
"q 	c #9DD5F7",
"r 	c #A1D6F7",
"s 	c #A8DAF7",
"t 	c #C5E4F7",
"u 	c #ECF2FB",
"v 	c #F2F5FA",
"w 	c #D6DAEF",
"x 	c #ADB5DC",
"y 	c #B7BFE0",
"z 	c #F6F9FB",
"A 	c #F6FAFC",
"B 	c #C2E6FB",
"C 	c #A2D9FA",
"D 	c #9ED6FA",
"E 	c #B0DCFA",
"F 	c #C4E5FA",
"G 	c #CDE8FB",
"H 	c #CCE7FB",
"I 	c #C7E5FA",
"J 	c #B1DBF9",
"K 	c #9DD1F5",
"L 	c #8ECAF3",
"M 	c #99CFF2",
"N 	c #CEE5F7",
"O 	c #F0F2FA",
"P 	c #D7DCEF",
"Q 	c #BEC4DD",
"R 	c #B0B7DD",
"S 	c #F0F1F7",
"T 	c #F0F6FC",
"U 	c #A8DAFA",
"V 	c #96D1F8",
"W 	c #A5D7F8",
"X 	c #BDE1FA",
"Y 	c #BBE0FA",
"Z 	c #B9E0FA",
"` 	c #BBE1FA",
" .	c #BBE0F9",
"..	c #B8DFF9",
"+.	c #B6DDF9",
"@.	c #B7DCF7",
"#.	c #A9D5F6",
"$.	c #88C4F0",
"%.	c #81C1EE",
"&.	c #B1D6F2",
"*.	c #EDF0F9",
"=.	c #ECF0F9",
"-.	c #CBD1EA",
";.	c #C0C6DC",
">.	c #C7CCE3",
",.	c #DBDEF0",
"'.	c #F6F9FC",
").	c #A5D6FA",
"!.	c #8DCBF8",
"~.	c #A6D6FA",
"{.	c #ADD7F9",
"].	c #A9D7F9",
"^.	c #ABD6F9",
"/.	c #ACD8F7",
"(.	c #BDE2F9",
"_.	c #C1E4FA",
":.	c #C0E2FA",
"<.	c #A7D5F5",
"[.	c #A3D2F5",
"}.	c #9FCFF3",
"|.	c #9FCFF2",
"1.	c #7BBBEC",
"2.	c #6EB3E9",
"3.	c #B3D5F1",
"4.	c #EBEEF7",
"5.	c #E9ECF7",
"6.	c #BAC1E1",
"7.	c #B9C0E1",
"8.	c #F7F9FC",
"9.	c #B3DCFA",
"0.	c #83C6F6",
"a.	c #98CFF7",
"b.	c #9BCFF7",
"c.	c #97CCF6",
"d.	c #97CCF5",
"e.	c #97CDF6",
"f.	c #98CDF6",
"g.	c #E3F2FC",
"h.	c #FFFFFF",
"i.	c #D8ECFA",
"j.	c #9ECFF2",
"k.	c #84BEED",
"l.	c #86BEEC",
"m.	c #66ACE6",
"n.	c #5EA6E3",
"o.	c #CBDDF4",
"p.	c #E7ECF7",
"q.	c #D9DDF1",
"r.	c #B4B9D7",
"s.	c #C3C9E3",
"t.	c #DDE1F1",
"u.	c #E3F0FA",
"v.	c #7BC0F6",
"w.	c #82C4F6",
"x.	c #8DC7F6",
"y.	c #85C2F5",
"z.	c #83C3F3",
"A.	c #82C1F1",
"B.	c #82C0F2",
"C.	c #81BFF1",
"D.	c #DAEDFB",
"E.	c #97C7EE",
"F.	c #67A9E2",
"G.	c #6AAAE3",
"H.	c #4F9ADD",
"I.	c #71AEE5",
"J.	c #E6E9F6",
"K.	c #E5E9F6",
"L.	c #F4F5FA",
"M.	c #A0D1F6",
"N.	c #70BAF3",
"O.	c #7EC1F3",
"P.	c #76BAF2",
"Q.	c #73B9F1",
"R.	c #73B9F0",
"S.	c #73B8F1",
"T.	c #72B5EE",
"U.	c #6EB4ED",
"V.	c #A1CFF3",
"W.	c #A7D2F3",
"X.	c #A6D1F2",
"Y.	c #C6E2F7",
"Z.	c #F4F9FE",
"`.	c #E5F0FA",
" +	c #4B91D6",
".+	c #4E95D8",
"++	c #4992D8",
"@+	c #3C8CD8",
"#+	c #BCD5F0",
"$+	c #E2E7F6",
"%+	c #CBD2EA",
"&+	c #AFB5CC",
"*+	c #F4F6FB",
"=+	c #71B9F3",
"-+	c #6BB7F2",
";+	c #6CB5F1",
">+	c #66B1EE",
",+	c #67B1EE",
"'+	c #67B3ED",
")+	c #66B2ED",
"!+	c #63AEEB",
"~+	c #5DAAE8",
"{+	c #58A5E7",
"]+	c #53A2E5",
"^+	c #52A0E5",
"/+	c #83BEEC",
"(+	c #367CC9",
"_+	c #367FCC",
":+	c #3D87D1",
"<+	c #3282D2",
"[+	c #77ADE2",
"}+	c #E1E6F5",
"|+	c #D9DFF1",
"1+	c #AAAFD1",
"2+	c #CED3EB",
"3+	c #D3E6F7",
"4+	c #56A8ED",
"5+	c #58A7E8",
"6+	c #509EE1",
"7+	c #4C9CDD",
"8+	c #509EE0",
"9+	c #57A6E5",
"0+	c #5EAEE9",
"a+	c #5FB1EC",
"b+	c #5DAEEB",
"c+	c #57AAE8",
"d+	c #53A4E7",
"e+	c #4E9FE4",
"f+	c #499CE2",
"g+	c #6DB0E8",
"h+	c #276BBD",
"i+	c #2770C3",
"j+	c #2C78C9",
"k+	c #2A7DCF",
"l+	c #428BD5",
"m+	c #DFE4F5",
"n+	c #DEE3F4",
"o+	c #CDCDE6",
"p+	c #D5D9ED",
"q+	c #F1F4FA",
"r+	c #B6D3F2",
"s+	c #4392DB",
"t+	c #3280C6",
"u+	c #2470B6",
"v+	c #2875B9",
"w+	c #2F7DBF",
"x+	c #3A8CCA",
"y+	c #4799D6",
"z+	c #5AA8E1",
"A+	c #7CBDEB",
"B+	c #7ABDEC",
"C+	c #77BAEC",
"D+	c #73B7E9",
"E+	c #C1DFF5",
"F+	c #1D5FB3",
"G+	c #1C62B8",
"H+	c #1B64B9",
"I+	c #1B68BD",
"J+	c #236DC1",
"K+	c #DCE1F4",
"L+	c #DCE2F4",
"M+	c #B4BBDF",
"N+	c #EFF2FA",
"O+	c #9FC3E7",
"P+	c #2B75BF",
"Q+	c #1D67AE",
"R+	c #1C66AB",
"S+	c #216CAF",
"T+	c #2977B8",
"U+	c #3C89C4",
"V+	c #C2DDEF",
"W+	c #86ACD7",
"X+	c #1755A8",
"Y+	c #1355A3",
"Z+	c #0F529E",
"`+	c #0F55A2",
" @	c #185DB1",
".@	c #D7DEF2",
"+@	c #DAE1F2",
"@@	c #B5BDE0",
"#@	c #D4D9ED",
"$@	c #93BADE",
"%@	c #1D64AE",
"&@	c #1760A8",
"*@	c #1761A7",
"=@	c #1C68AE",
"-@	c #2372B5",
";@	c #9DC5E2",
">@	c #ECF2F9",
",@	c #729BCA",
"'@	c #124D9C",
")@	c #0E4893",
"!@	c #0E4D99",
"~@	c #0D4E99",
"{@	c #0D519E",
"]@	c #1657A8",
"^@	c #D5DDF0",
"/@	c #D9DEF2",
"(@	c #CAD1EA",
"_@	c #EBEEF9",
":@	c #AAC5E2",
"<@	c #1B5FA9",
"[@	c #1760A9",
"}@	c #1761AA",
"|@	c #1C69B0",
"1@	c #216FB5",
"2@	c #B9D6EB",
"3@	c #B1CBE2",
"4@	c #6B97C2",
"5@	c #6C97C2",
"6@	c #6D97C2",
"7@	c #6D96C0",
"8@	c #3E71A9",
"9@	c #0D418B",
"0@	c #0D438B",
"a@	c #0D468F",
"b@	c #0D4A94",
"c@	c #0B4C99",
"d@	c #0B4D9B",
"e@	c #0C4D9C",
"f@	c #2360AB",
"g@	c #D5DDF1",
"h@	c #D6DDF2",
"i@	c #BDC5E3",
"j@	c #EAEDF7",
"k@	c #D5E1F0",
"l@	c #1F5FAB",
"m@	c #175EA8",
"n@	c #1661AF",
"o@	c #1B68B3",
"p@	c #1D6BB5",
"q@	c #B7D4EA",
"r@	c #6A97C3",
"s@	c #0C418D",
"t@	c #0A418C",
"u@	c #0A408C",
"v@	c #0B418D",
"w@	c #0B438D",
"x@	c #0C428F",
"y@	c #0B4693",
"z@	c #0B4997",
"A@	c #0B4B9D",
"B@	c #0B4FA0",
"C@	c #0B4998",
"D@	c #4074B7",
"E@	c #D6DDF1",
"F@	c #CFD7EF",
"G@	c #A2AACB",
"H@	c #E5E8F6",
"I@	c #E2E8F5",
"J@	c #447AB9",
"K@	c #1557A1",
"L@	c #1662B0",
"M@	c #1968B5",
"N@	c #1A68B6",
"O@	c #1F6CB7",
"P@	c #3E7EBE",
"Q@	c #1657A2",
"R@	c #0B4595",
"S@	c #0B4292",
"T@	c #0A4392",
"U@	c #0A4595",
"V@	c #0B4797",
"W@	c #0A4899",
"X@	c #0A4A9B",
"Y@	c #0B4C9E",
"Z@	c #0B4EA1",
"`@	c #0B4FA5",
" #	c #0A50A6",
".#	c #0B4E9F",
"+#	c #094594",
"@#	c #83A4D1",
"##	c #D4DAF1",
"$#	c #C2C9E7",
"%#	c #9096AB",
"&#	c #BEC4DF",
"*#	c #D3D9ED",
"=#	c #98B4DA",
"-#	c #13509D",
";#	c #165DAA",
">#	c #1664B7",
",#	c #216FBD",
"'#	c #EBF4FA",
")#	c #EBF2F9",
"!#	c #3B74B4",
"~#	c #0B489A",
"{#	c #0B4A9E",
"]#	c #0B4CA2",
"^#	c #0B4FA6",
"/#	c #0B51A8",
"(#	c #0B51A9",
"_#	c #0B53A9",
":#	c #0A52AA",
"<#	c #0A50A8",
"[#	c #094595",
"}#	c #1E549E",
"|#	c #C9D4ED",
"1#	c #D3D9F0",
"2#	c #B5BCE0",
"3#	c #82848D",
"4#	c #B6BFE0",
"5#	c #E2E7F5",
"6#	c #D9E1F2",
"7#	c #3C6DB1",
"8#	c #12509C",
"9#	c #125BAF",
"0#	c #317AC3",
"a#	c #6998CA",
"b#	c #0B4AA1",
"c#	c #0B4FA8",
"d#	c #0C53AB",
"e#	c #0C55AF",
"f#	c #0B55B0",
"g#	c #0A55B0",
"h#	c #0A53AE",
"i#	c #09499C",
"j#	c #073E8C",
"k#	c #7F9ECC",
"l#	c #D0D8F0",
"m#	c #C8CFEB",
"n#	c #99A0BE",
"o#	c #C3C6E1",
"p#	c #CDD4EC",
"q#	c #E0E4F5",
"r#	c #B9CBE6",
"s#	c #1B519B",
"t#	c #0D4896",
"u#	c #0D54AD",
"v#	c #699DD2",
"w#	c #B0CBE7",
"x#	c #8BB1D8",
"y#	c #1555A8",
"z#	c #0B4DA7",
"A#	c #0B52AD",
"B#	c #0C56B1",
"C#	c #0C58B5",
"D#	c #0B57B5",
"E#	c #0A57B3",
"F#	c #0A56B3",
"G#	c #0A54B1",
"H#	c #094A9F",
"I#	c #073D8B",
"J#	c #4A72AF",
"K#	c #C9D2EC",
"L#	c #B4BCE0",
"M#	c #828591",
"N#	c #B0B9DD",
"O#	c #D9DEF1",
"P#	c #D8E0F1",
"Q#	c #93AED5",
"R#	c #11448F",
"S#	c #0B408C",
"T#	c #0B4A9F",
"U#	c #0B4CA7",
"V#	c #0B4BA6",
"W#	c #0B4DA8",
"X#	c #0B51AD",
"Y#	c #0B54B2",
"Z#	c #0B57B6",
"`#	c #0B59B8",
" $	c #0A58B7",
".$	c #0A57B6",
"+$	c #0953B1",
"@$	c #084699",
"#$	c #063A88",
"$$	c #325B9F",
"%$	c #C6D1EC",
"&$	c #CFD7F0",
"*$	c #C0C7E7",
"=$	c #8D92A9",
"-$	c #C4C7DA",
";$	c #DADFF2",
">$	c #D3DDF0",
",$	c #9EB5D7",
"'$	c #1D4C94",
")$	c #073883",
"!$	c #093E8C",
"~$	c #0A479E",
"{$	c #0A4CA9",
"]$	c #0A51B0",
"^$	c #0A54B5",
"/$	c #0A56B7",
"($	c #0952B0",
"_$	c #0949A0",
":$	c #073C8B",
"<$	c #073986",
"[$	c #4E75B0",
"}$	c #C4CFEC",
"|$	c #C4CDEA",
"1$	c #ACB4DB",
"2$	c #77797E",
"3$	c #BABDD4",
"4$	c #B6BFE1",
"5$	c #D4DAF0",
"6$	c #D1D9F0",
"7$	c #BCCBE7",
"8$	c #5C7FB7",
"9$	c #13428B",
"0$	c #073781",
"a$	c #073784",
"b$	c #073E8E",
"c$	c #083F91",
"d$	c #083F92",
"e$	c #063886",
"f$	c #073886",
"g$	c #28559C",
"h$	c #8BA5D1",
"i$	c #CED7EF",
"j$	c #C3CBE8",
"k$	c #7D7F8B",
"l$	c #B6B9CC",
"m$	c #D3DBF0",
"n$	c #CDD7ED",
"o$	c #BACAE6",
"p$	c #809ECA",
"q$	c #406AA9",
"r$	c #2B599D",
"s$	c #215298",
"t$	c #29589D",
"u$	c #2D5A9E",
"v$	c #5B80B7",
"w$	c #A0B7DB",
"x$	c #C3D0EA",
"y$	c #CDD4EF",
"z$	c #BCC4E5",
"A$	c #9398B2",
"B$	c #7D7D86",
"C$	c #B3B7C5",
"D$	c #A4ADCB",
"E$	c #BAC1E2",
"F$	c #CDD4ED",
"G$	c #CED6ED",
"H$	c #C4D1EB",
"I$	c #C1CEEA",
"J$	c #C2D0EB",
"K$	c #C8D2ED",
"L$	c #CBD6ED",
"M$	c #CED5EF",
"N$	c #C1C9E7",
"O$	c #8C92A5",
"P$	c #717177",
"Q$	c #A1A4B6",
"R$	c #A4AACD",
"S$	c #B4BBE0",
"T$	c #BEC6E6",
"U$	c #C8CFEC",
"V$	c #CED5F0",
"W$	c #CAD2EC",
"X$	c #C7CEEB",
"Y$	c #B9C1E2",
"Z$	c #9099AD",
"`$	c #777A81",
" %	c #9398AA",
".%	c #9CA3C1",
"+%	c #9CA3C2",
"@%	c #AAB0D4",
"#%	c #A1A9CC",
"$%	c #9BA2C1",
"%%	c #838491",
"&%	c #717374",
"                                                                ",
"                          . + @ + # $                           ",
"                    % & * = - ; > , ' ) ! $                     ",
"                ~ { ] ^ ^ / ( _ _ : < [ } | 1 2                 ",
"              3 4 ^ ^ / 5 6 7 8 9 0 a b c d e f g               ",
"          h i j / ( k l m n o p q r p s t u v j w x             ",
"          y z ( A B C D E F G H H I J K L M N O O P Q           ",
"        R S _ T U V W X Y Z ` Y  ...+.@.#.$.%.&.*.=.-.;.        ",
"      >.,.: '.).!.~.{.].^./.(._._.:.<.[.}.|.1.2.3.4.5.6.        ",
"      7.8.[ 9.0.a.b.c.d.e.f.g.h.h.h.h.i.j.k.l.m.n.o.p.q.r.      ",
"    s.t.8.u.v.w.x.y.z.A.B.C.D.h.h.h.h.h.h.E.F.G.H.I.J.K.7.      ",
"    R L.c M.N.O.P.Q.R.S.T.U.V.W.X.Y.Z.h.h.`. +.+++@+#+$+%+&+    ",
"    { } *+=+-+;+>+,+,+'+)+!+~+{+]+^+/+h.h.h.(+_+:+<+[+}+|+1+    ",
"    2+v 3+4+5+6+7+8+9+0+a+b+c+d+e+f+g+h.h.h.h+i+j+k+l+m+n+!     ",
"  o+p+q+r+s+t+u+v+w+x+y+z+A+B+C+D+/+E+h.h.h.F+G+H+I+J+K+L+M+    ",
"  . P N+O+P+Q+R+S+T+U+V+h.h.h.h.h.h.h.h.h.W+X+Y+Z+`+ @.@+@@@    ",
"  >.#@*.$@%@&@*@=@-@;@h.h.h.h.h.h.h.h.>@,@'@)@!@~@{@]@^@/@M+    ",
"    (@_@:@<@[@}@|@1@2@h.h.3@4@5@6@7@8@9@0@a@b@c@d@e@f@g@h@!     ",
"    i@j@k@l@m@n@o@p@q@h.h.r@s@t@u@v@w@x@y@z@A@B@B@C@D@E@F@G@    ",
"    ! H@I@J@K@L@M@N@O@P@Q@R@S@T@U@V@W@X@Y@Z@`@ #.#+#@###$#%#    ",
"    &#*#H@=#-#;#>#,#'#h.)#!#~#{#]#`@^#/#(#_#:#<#[#}#|#1#2#3#    ",
"      4#5#6#7#8#9#0#h.h.h.a#b#c#d#e#f#f#g#g#h#i#j#k#l#m#n#      ",
"      o#p#q#r#s#t#u#v#w#x#y#z#A#B#C#D#E#F#G#H#I#J#K#l#L#M#      ",
"        N#O#P#Q#R#S#T#U#V#W#X#Y#Z#`# $.$+$@$#$$$%$&$*$=$        ",
"        -$@@;$>$,$'$)$!$~${$]$^$/$/$($_$:$<$[$}$&$|$1$2$        ",
"          3$4$5$6$7$8$9$0$a$b$c$d$:$e$f$g$h$%$i$j$x k$          ",
"            l$N#p#m$n$o$p$q$r$s$t$u$v$w$x$y$y$z$A$B$            ",
"              C$D$E$F$1#6$G$H$I$J$K$L$M$M$N$N#O$P$              ",
"                  Q$R$S$T$m#U$V$W$X$j$Y$! Z$`$                  ",
"                         %.%+%@%#%$%A$%%&%                      ",
"                                                                ",
"                                                                "};
