/* XPM */
static char *xchm_16[] = {
/* width height num_colors chars_per_pixel */
"    16    16      196            2",
/* colors */
".. c None",
".# c #000101",
".a c #040404",
".b c #053a8f",
".c c #060606",
".d c #073b8e",
".e c #074096",
".f c #074197",
".g c #07469e",
".h c #0849a6",
".i c #090909",
".j c #09459a",
".k c #0946a1",
".l c #094798",
".m c #0948a3",
".n c #0949a0",
".o c #0949a6",
".p c #0a4395",
".q c #0a4797",
".r c #0a4b9f",
".s c #0b4ba0",
".t c #0c4896",
".u c #0c4998",
".v c #0c50a6",
".w c #0d3d8f",
".x c #0d4a97",
".y c #0d4d9c",
".z c #0e0e0e",
".A c #0f0f0f",
".B c #0f4d9b",
".C c #103d8c",
".D c #125bab",
".E c #1556a5",
".F c #155aa8",
".G c #1863aa",
".H c #195db2",
".I c #1a63aa",
".J c #1b4793",
".K c #1b53a2",
".L c #202021",
".M c #24549e",
".N c #272729",
".O c #296dbd",
".P c #2a5299",
".Q c #2c78ca",
".R c #2d2e30",
".S c #2f6cb4",
".T c #2f7dbe",
".U c #343435",
".V c #3986cb",
".W c #3c3d42",
".X c #414247",
".Y c #424349",
".Z c #44464c",
".0 c #447fbb",
".1 c #48484e",
".2 c #489be3",
".3 c #4a4c53",
".4 c #4a84c0",
".5 c #4f96d9",
".6 c #505058",
".7 c #51535c",
".8 c #53555f",
".9 c #55a7e8",
"#. c #595b67",
"## c #595b68",
"#a c #5c5e6b",
"#b c #5d606d",
"#c c #5dadeb",
"#d c #5f6371",
"#e c #60b1eb",
"#f c #616473",
"#g c #616574",
"#h c #629ad1",
"#i c #636575",
"#j c #636777",
"#k c #646879",
"#l c #649fda",
"#m c #65b2eb",
"#n c #66b2ee",
"#o c #686b7d",
"#p c #6a6c7f",
"#q c #6a6e84",
"#r c #6a9dcc",
"#s c #6b95c9",
"#t c #6c7286",
"#u c #6e9cd2",
"#v c #70758f",
"#w c #717690",
"#x c #728fc0",
"#y c #737a95",
"#z c #747a97",
"#A c #757b9b",
"#B c #76aee3",
"#C c #777d9e",
"#D c #7b98c5",
"#E c #7cacd6",
"#F c #7cb5dd",
"#G c #7da5d5",
"#H c #7dc1f2",
"#I c #7f88b5",
"#J c #7f88b6",
"#K c #8189b6",
"#L c #818ab6",
"#M c #81c5f7",
"#N c #828bb7",
"#O c #828bb8",
"#P c #82b9e9",
"#Q c #84b8e6",
"#R c #84c0ed",
"#S c #85c5f5",
"#T c #8992bc",
"#U c #89a4d0",
"#V c #8b94be",
"#W c #8c95be",
"#X c #8fa6d0",
"#Y c #9099c0",
"#Z c #90caf3",
"#0 c #91cdf6",
"#1 c #92c9f1",
"#2 c #939cc4",
"#3 c #949dc5",
"#4 c #969dc3",
"#5 c #96b0d6",
"#6 c #99a2c8",
"#7 c #9abbe3",
"#8 c #9ba3c6",
"#9 c #9ba4ca",
"a. c #9ca5cb",
"a# c #9da5cb",
"aa c #a2abcf",
"ab c #a3b5d8",
"ac c #a3d0f5",
"ad c #a4b9dc",
"ae c #a4d6f6",
"af c #a6afd0",
"ag c #a6afd1",
"ah c #a7aecf",
"ai c #a8badd",
"aj c #abb2d0",
"ak c #abb3d4",
"al c #acdaf9",
"am c #acdbf9",
"an c #aeb5d5",
"ao c #aeb6d7",
"ap c #b2b9d4",
"aq c #b2c2e3",
"ar c #b3d3f1",
"as c #b4d1e7",
"at c #b4d8f5",
"au c #b5dffb",
"av c #b7e0fa",
"aw c #b7e2fb",
"ax c #b9bfda",
"ay c #bac1dd",
"az c #bad5ed",
"aA c #c0cbe7",
"aB c #c1c7e2",
"aC c #c2cde8",
"aD c #c3e7fb",
"aE c #c4e0f6",
"aF c #c4e7fb",
"aG c #c4e9fb",
"aH c #c5dbec",
"aI c #c6d1ea",
"aJ c #c6e6fb",
"aK c #c9cde3",
"aL c #c9d0e2",
"aM c #cbd0e3",
"aN c #cceafc",
"aO c #cddbed",
"aP c #cee7fa",
"aQ c #cfd3e3",
"aR c #cfd3e6",
"aS c #d0eafc",
"aT c #d1ebfb",
"aU c #d1ecfb",
"aV c #d2ecfc",
"aW c #d5d8ea",
"aX c #d5def0",
"aY c #d6e5f2",
"aZ c #d6e6f2",
"a0 c #d7dbeb",
"a1 c #deedfa",
"a2 c #e2e7f1",
"a3 c #e6e8f4",
"a4 c #e6f4fc",
"a5 c #e7eaf2",
"a6 c #e9ebf4",
"a7 c #e9f4fa",
"a8 c #e9f5fe",
"a9 c #ecedf5",
"b. c #f0f7fc",
"b# c #f3f9fe",
"ba c #f5f7fc",
"bb c #ffffff",
/* pixels */
".........c.7#q#C#A#o.Y..........",
".......8#NapaQa6a2aLah#y.Z.#....",
"....#i#4a5a8aUaGaDaTa7aW#W#a....",
"..#.#8baaFawaNaVaSaJaeaEa3#T.X..",
".c#Ka9avamauala4bbb#aP#RaraK#v..",
".6aja1#M#0#S#H#Z#1atbb#Q.5aX#V.N",
"#taMac#n#m#e#c.9.2#Pbb#l.Q#7af##",
"#za0#B.V.T#Fb.bbbbbbaz.O.H#uan#k",
"#waR#h.I.GasaH.0.4.S.E.B.x#sak#f",
"#jax#G.F.D#E#r.y.u.t.q.l.p#5#6.1",
".R#YaO.K.vaZaY.s.s.r.n.j.MaI#O.A",
"..#qay#U.w.k.m.m.o.h.g.Cadaa#d..",
"...U#LaB#X.J.d.e.f.b.Paiao#p.i..",
".....3#IagaAab#x#DaqaCa##p.R....",
".......L#g#J#3a.#9#2#I#b........",
"...........z.Y.7.6.W.a.........."
};
