/* XPM */
static char * xchmdoc_16_xpm[] = {
"16 16 182 2",
"  	c None",
". 	c #BEBEBE",
"+ 	c #9E9E9E",
"@ 	c #BFBFBF",
"# 	c #B2B2B2",
"$ 	c #D5D5D5",
"% 	c #D8D8D8",
"& 	c #D3D3D4",
"* 	c #B4B6BE",
"= 	c #ACAEB9",
"- 	c #B4B8C0",
"; 	c #BDBEBE",
"> 	c #C0C0C0",
", 	c #C7C7C7",
"' 	c #C9C9C9",
") 	c #D1D3DC",
"! 	c #BABFD2",
"~ 	c #CBCED9",
"{ 	c #AAABB0",
"] 	c #BCBDBF",
"^ 	c #D2D2D2",
"/ 	c #B6B6B6",
"( 	c #CDCDCD",
"_ 	c #CFD1D9",
": 	c #CBCFDD",
"< 	c #E8E9EB",
"[ 	c #E5EAEE",
"} 	c #BEC8CC",
"| 	c #BDBFC0",
"1 	c #E0E4E6",
"2 	c #CDD3D6",
"3 	c #CBCBCB",
"4 	c #BBBBBB",
"5 	c #F7F7F7",
"6 	c #BEBFC7",
"7 	c #9C9FAC",
"8 	c #C0C0C3",
"9 	c #A1AFB7",
"0 	c #9CAEB9",
"a 	c #969FA6",
"b 	c #84888A",
"c 	c #BEBEBF",
"d 	c #BABEC1",
"e 	c #C3CAD2",
"f 	c #B8B8B8",
"g 	c #F7F7F8",
"h 	c #BDC1D4",
"i 	c #D9D9DB",
"j 	c #A5B5C0",
"k 	c #A5B8C4",
"l 	c #A5B6C2",
"m 	c #92A4AF",
"n 	c #929598",
"o 	c #969595",
"p 	c #969899",
"q 	c #AEB6BB",
"r 	c #D1D1D1",
"s 	c #B9B9B9",
"t 	c #E7E9F1",
"u 	c #D3D7E3",
"v 	c #E8EFF4",
"w 	c #BFDEF3",
"x 	c #C6E1F2",
"y 	c #C0DDF1",
"z 	c #B9D8EC",
"A 	c #BAD4E4",
"B 	c #B9D1E2",
"C 	c #C6D5E0",
"D 	c #D3D3D3",
"E 	c #BCBCBC",
"F 	c #D9DDEA",
"G 	c #E3E5ED",
"H 	c #D0E4F4",
"I 	c #B3D7F1",
"J 	c #B2D7EF",
"K 	c #AFD6EF",
"L 	c #ADD4EE",
"M 	c #A8D1EC",
"N 	c #9FC9E8",
"O 	c #BCD5EA",
"P 	c #E7E7E7",
"Q 	c #D7D7D7",
"R 	c #BDBDBD",
"S 	c #B6B9C8",
"T 	c #CECFD6",
"U 	c #9EB8CF",
"V 	c #80A8C7",
"W 	c #76A2BF",
"X 	c #9BB6C7",
"Y 	c #D4D6DA",
"Z 	c #DCDBDB",
"` 	c #D7D6D7",
" .	c #DAD8D9",
"..	c #B6C1CD",
"+.	c #D9D9D9",
"@.	c #D5D9E8",
"#.	c #B5D0E8",
"$.	c #8AB7D7",
"%.	c #88B6D7",
"&.	c #DAE7F0",
"*.	c #E1EAF1",
"=.	c #A3C3DD",
"-.	c #A6C4DF",
";.	c #96B9D9",
">.	c #7CA5C9",
",.	c #DDDDDD",
"'.	c #B5B7C4",
").	c #C3C5D1",
"!.	c #A5B7CC",
"~.	c #6893B9",
"{.	c #6998BD",
"].	c #A2B9CB",
"^.	c #9BB3C9",
"/.	c #608BB1",
"(.	c #608AB0",
"_.	c #608AAF",
":.	c #6F99BF",
"<.	c #DFDFDF",
"[.	c #F4F5F9",
"}.	c #CDD1E2",
"|.	c #E7EDF5",
"1.	c #8DB0D5",
"2.	c #80AFD6",
"3.	c #EAF1F6",
"4.	c #EAF0F5",
"5.	c #7EABD3",
"6.	c #7DAAD2",
"7.	c #7DABD2",
"8.	c #76A3CB",
"9.	c #E0E0E0",
"0.	c #BAB8B9",
"a.	c #A9ABB9",
"b.	c #C0C3CF",
"c.	c #A9B6C9",
"d.	c #6385AE",
"e.	c #5F8AB5",
"f.	c #5E8BB6",
"g.	c #628EBA",
"h.	c #618DB9",
"i.	c #5C8AB6",
"j.	c #6893BC",
"k.	c #E5E5E5",
"l.	c #FFFFFF",
"m.	c #EEEFF4",
"n.	c #C7CCDF",
"o.	c #E3E6F1",
"p.	c #CDD8E9",
"q.	c #8EABCF",
"r.	c #7EA4CC",
"s.	c #7DA6CF",
"t.	c #7CA6CF",
"u.	c #7DA4CD",
"v.	c #8FA8C9",
"w.	c #E8E8E8",
"x.	c #C7C5C5",
"y.	c #C2BFC0",
"z.	c #B7B7C0",
"A.	c #A7ACC0",
"B.	c #B9BDCC",
"C.	c #C6CAD6",
"D.	c #B8C0D0",
"E.	c #A9B6CD",
"F.	c #B2BFD3",
"G.	c #C9D0DE",
"H.	c #D2D6E3",
"I.	c #F0F0F0",
"J.	c #C1C1C1",
"K.	c #F7F7FA",
"L.	c #DFE2ED",
"M.	c #C8CDE1",
"N.	c #D2D6E7",
"O.	c #D5DAEA",
"P.	c #D5D9E9",
"Q.	c #D1D6E7",
"R.	c #C5CADE",
"S.	c #A7A7A7",
"T.	c #CECECE",
"U.	c #CDCDCF",
"V.	c #C6C8CE",
"W.	c #C4C6CD",
"X.	c #C5C6CC",
"Y.	c #C4C4C5",
"  . + @ # $ % & * = -           ",
"  ; + > , ' ) ! ~ { ] ^         ",
"  ' / ' ( _ : < [ } | 1 2       ",
"  3 4 5 6 7 8 9 0 a b c d e     ",
"  ( f g h i j k l m n o p q     ",
"  r s t u v w x y z A B C D     ",
"  $ E F G H I J K L M N O P     ",
"  Q R S T U V W X Y Z `  ...    ",
"  +.. @.t #.$.%.&.*.=.-.;.>.    ",
"  ,.. '.).!.~.{.].^./.(._.:.    ",
"  <.. [.}.|.1.2.3.4.5.6.7.8.    ",
"  9.. 0.a.b.c.d.e.f.g.h.i.j.    ",
"  k.. l.m.n.o.p.q.r.s.t.u.v.    ",
"  w.. x.y.z.A.B.C.D.E.F.G.H.    ",
"  I.J.l.l.l.K.L.M.N.O.P.Q.R.    ",
"  Q S.r ( T.T.T.U.V.W.W.X.Y.    "};
