/* XPM */
static const char * xchmdoc_32_xpm[] = {
"32 32 585 2",
"  	c None",
". 	c #CCCCCC",
"+ 	c #8B8B8B",
"@ 	c #DFDFDF",
"# 	c #CDCDCD",
"$ 	c #C8C8C8",
"% 	c #BFBFBF",
"& 	c #BABABA",
"* 	c #EDEDED",
"= 	c #EAEAEA",
"- 	c #E6E7E8",
"; 	c #DEDFE6",
"> 	c #D9DBE4",
", 	c #DFE0E5",
"' 	c #DFDFE1",
") 	c #D5D5D5",
"! 	c #C9C9C9",
"~ 	c #D7D7D7",
"{ 	c #CECECE",
"] 	c #B8B8B8",
"^ 	c #D5D4D4",
"/ 	c #8F8F8F",
"( 	c #C1C1C1",
"_ 	c #A3A3A3",
": 	c #9F9F9F",
"< 	c #B2B2B2",
"[ 	c #DADADA",
"} 	c #DCDCDD",
"| 	c #D3D5DE",
"1 	c #DADBE1",
"2 	c #E1E2E3",
"3 	c #E3E3E3",
"4 	c #D6D6D6",
"5 	c #C4C5C5",
"6 	c #ADAFB1",
"7 	c #CBCED0",
"8 	c #C8CBCE",
"9 	c #ADADAD",
"0 	c #CFCFCF",
"a 	c #9A9A9A",
"b 	c #A2A2A2",
"c 	c #999999",
"d 	c #B9B9B9",
"e 	c #CBCBCB",
"f 	c #C4C4C4",
"g 	c #C7C8CA",
"h 	c #D8DBE3",
"i 	c #E2E3E6",
"j 	c #E8E8E8",
"k 	c #E6E6E6",
"l 	c #E5E5E5",
"m 	c #DBE0E3",
"n 	c #CCD8DF",
"o 	c #B8C7D0",
"p 	c #A2B1BC",
"q 	c #818C94",
"r 	c #BDC8CF",
"s 	c #BECCD4",
"t 	c #AFAFAF",
"u 	c #DCDCDC",
"v 	c #A0A0A0",
"w 	c #A8A8A8",
"x 	c #C3C3C3",
"y 	c #BFBFC0",
"z 	c #C5C6CB",
"A 	c #E9EAEC",
"B 	c #ECECEC",
"C 	c #E3E6E8",
"D 	c #D0DEE6",
"E 	c #C1D6E4",
"F 	c #C1D5E2",
"G 	c #C1CFDA",
"H 	c #B2BDC5",
"I 	c #8C9399",
"J 	c #CACACB",
"K 	c #C4CAD0",
"L 	c #BECCD0",
"M 	c #B1B1B1",
"N 	c #E3E4E4",
"O 	c #EEEEEE",
"P 	c #C6C6C6",
"Q 	c #BEBEBE",
"R 	c #C8C9CF",
"S 	c #C0C1C2",
"T 	c #D8D8D7",
"U 	c #D5D6D6",
"V 	c #C3CAD0",
"W 	c #AEBEC9",
"X 	c #A6B8C4",
"Y 	c #A1AFB7",
"Z 	c #BCC3CB",
"` 	c #C0C7CB",
" .	c #929699",
"..	c #7B8185",
"+.	c #D3D4D4",
"@.	c #E2E2E2",
"#.	c #C8CED2",
"$.	c #C7CDD1",
"%.	c #B4B4B4",
"&.	c #A6A6A6",
"*.	c #F1F1F1",
"=.	c #EBEBEB",
"-.	c #E4E6EA",
";.	c #ABAAAD",
">.	c #6A6A6A",
",.	c #6A6968",
"'.	c #5D6165",
").	c #5C6975",
"!.	c #50585D",
"~.	c #555A5D",
"{.	c #5E656B",
"].	c #646A6D",
"^.	c #53575A",
"/.	c #787C7D",
"(.	c #464B4C",
"_.	c #C2C2C3",
":.	c #FFFFFF",
"<.	c #C5CBCF",
"[.	c #C7D0D6",
"}.	c #F3F3F3",
"|.	c #E7E7E9",
"1.	c #DEE0E8",
"2.	c #E9E9EB",
"3.	c #E2E7EA",
"4.	c #C2D6E2",
"5.	c #C9DDEC",
"6.	c #D6E3EC",
"7.	c #D4E1EB",
"8.	c #D1DFE8",
"9.	c #D1DEE8",
"0.	c #BFCED7",
"a.	c #C9D2D7",
"b.	c #D0D0D0",
"c.	c #E7E7E7",
"d.	c #CFD3D5",
"e.	c #BDC6CC",
"f.	c #F4F4F4",
"g.	c #DFE1E7",
"h.	c #EFEFEF",
"i.	c #EDEDEE",
"j.	c #D1E2ED",
"k.	c #8F9FA9",
"l.	c #7A838A",
"m.	c #89949A",
"n.	c #A3B0B7",
"o.	c #8D959D",
"p.	c #77818B",
"q.	c #737E86",
"r.	c #97A0A7",
"s.	c #757375",
"t.	c #858686",
"u.	c #939393",
"v.	c #A5A5A5",
"w.	c #AEAEAE",
"x.	c #D2D5D7",
"y.	c #B7C3CC",
"z.	c #F0F0F0",
"A.	c #A4A4A4",
"B.	c #F6F6F6",
"C.	c #EBEBEC",
"D.	c #DEE1E9",
"E.	c #EBECEE",
"F.	c #E0E8EF",
"G.	c #C5DDEC",
"H.	c #BED1DE",
"I.	c #B0C1CB",
"J.	c #B8C9D3",
"K.	c #BCCEDA",
"L.	c #BECFDC",
"M.	c #B1C1CD",
"N.	c #AABAC7",
"O.	c #A6B4BF",
"P.	c #8F969D",
"Q.	c #878C92",
"R.	c #7D8186",
"S.	c #7C7F83",
"T.	c #888888",
"U.	c #8A8A8A",
"V.	c #979797",
"W.	c #C2CDD5",
"X.	c #F7F7F7",
"Y.	c #EAEBED",
"Z.	c #E1E3EB",
"`.	c #F0F0F1",
" +	c #F1F0F1",
".+	c #D2E3EF",
"++	c #C4DDEE",
"@+	c #CBE0EE",
"#+	c #CADEED",
"$+	c #BDD0DD",
"%+	c #94A4AF",
"&+	c #98A8B5",
"*+	c #95A6B3",
"=+	c #A2B6C3",
"-+	c #B8CDDC",
";+	c #A5B9C9",
">+	c #93A5B4",
",+	c #8A9CAA",
"'+	c #A5AAAF",
")+	c #ACACAB",
"!+	c #ADB4BB",
"~+	c #B6B6B6",
"{+	c #F9F9F9",
"]+	c #E7E8ED",
"^+	c #E7E9EE",
"/+	c #F3F2F3",
"(+	c #ECEFF1",
"_+	c #C9E0EF",
":+	c #C6DDEE",
"<+	c #B9CEDC",
"[+	c #9DAEBC",
"}+	c #8C9BA6",
"|+	c #81929E",
"1+	c #7F929F",
"2+	c #8798A4",
"3+	c #93A7B6",
"4+	c #879AA9",
"5+	c #A5BCCD",
"6+	c #A7BED0",
"7+	c #A3BDD0",
"8+	c #C3CDD4",
"9+	c #B3BBC3",
"0+	c #B7B7B7",
"a+	c #A7A7A7",
"b+	c #FAFAFA",
"c+	c #E4E6EE",
"d+	c #EBECF0",
"e+	c #F4F3F3",
"f+	c #E4EBF1",
"g+	c #C3DCEE",
"h+	c #C2DBED",
"i+	c #BED8EA",
"j+	c #B9D0E2",
"k+	c #AEC6D6",
"l+	c #A7BDCE",
"m+	c #A9C1D2",
"n+	c #ADC5D8",
"o+	c #A8BFCF",
"p+	c #BBD4E5",
"q+	c #B9D0E0",
"r+	c #B8D2E3",
"s+	c #B9D2E4",
"t+	c #BED5E3",
"u+	c #DBE2E5",
"v+	c #BEC8D2",
"w+	c #BCBCBC",
"x+	c #FCFCFC",
"y+	c #D2D4DB",
"z+	c #D9D9DC",
"A+	c #DDDDDD",
"B+	c #D3DAE4",
"C+	c #A8BFD3",
"D+	c #A3B8CB",
"E+	c #A0B8CA",
"F+	c #9CB5C7",
"G+	c #A6BFD2",
"H+	c #9FB8C9",
"I+	c #ADC0CC",
"J+	c #BFC9D0",
"K+	c #CDD2D8",
"L+	c #D3D9DD",
"M+	c #D2D7DA",
"N+	c #CCD1D3",
"O+	c #CED2D4",
"P+	c #CDCED1",
"Q+	c #CCCDCE",
"R+	c #D9D9DA",
"S+	c #CDCECF",
"T+	c #ABB7C4",
"U+	c #A9A9A9",
"V+	c #FEFEFE",
"W+	c #ACADB3",
"X+	c #B7B8BB",
"Y+	c #A2A2A5",
"Z+	c #99A0A8",
"`+	c #798B9A",
" @	c #778999",
".@	c #7F90A1",
"+@	c #738596",
"@@	c #8197A8",
"#@	c #8595A0",
"$@	c #A6A8AA",
"%@	c #AEAAAD",
"&@	c #B0B0B3",
"*@	c #ADADB0",
"=@	c #AEADAE",
"-@	c #ADAEAF",
";@	c #A8A7A7",
">@	c #A4A4A6",
",@	c #A2A1A2",
"'@	c #ACABAC",
")@	c #8C9398",
"!@	c #7288A6",
"~@	c #C0C0C0",
"{@	c #AAAAAA",
"]@	c #E9EAF2",
"^@	c #EEF0F4",
"/@	c #F8F7F8",
"(@	c #E0E8F1",
"_@	c #B8D3E8",
":@	c #B2CDE1",
"<@	c #AECADF",
"[@	c #ACCADF",
"}@	c #D7E5ED",
"|@	c #F5F5F5",
"1@	c #F3F3F4",
"2@	c #F0F1F2",
"3@	c #E5E9ED",
"4@	c #D3DCE6",
"5@	c #BBCDDF",
"6@	c #A8C3DB",
"7@	c #ADCAE1",
"8@	c #F8F8F8",
"9@	c #ABABAB",
"0@	c #A9A9AE",
"a@	c #ACAEB5",
"b@	c #B6B7B9",
"c@	c #9D9DA2",
"d@	c #8FA1B3",
"e@	c #849AA9",
"f@	c #778998",
"g@	c #7D90A2",
"h@	c #829AAC",
"i@	c #AFB8BE",
"j@	c #AFB0B4",
"k@	c #B4B3B1",
"l@	c #9DA1A6",
"m@	c #7E8C9B",
"n@	c #7C8E9A",
"o@	c #8694A4",
"p@	c #8394A5",
"q@	c #7C8C9B",
"r@	c #7A8FA2",
"s@	c #788FA0",
"t@	c #7A90A0",
"u@	c #A1BCD1",
"v@	c #F2F3F6",
"w@	c #E9ECF3",
"x@	c #F4F5F7",
"y@	c #F3F4F6",
"z@	c #C2D6E9",
"A@	c #B4D0E5",
"B@	c #B0CDE3",
"C@	c #AFCCE2",
"D@	c #ADCBE2",
"E@	c #C6DAE9",
"F@	c #DCE7EF",
"G@	c #DBE5EE",
"H@	c #C6D6E6",
"I@	c #AAC6DE",
"J@	c #ABC9E0",
"K@	c #AAC8E0",
"L@	c #AAC8DF",
"M@	c #AAC8DE",
"N@	c #A8C5DC",
"O@	c #A6C3DA",
"P@	c #ACCAE1",
"Q@	c #C7C7C7",
"R@	c #ACACAC",
"S@	c #B0AEB1",
"T@	c #A6A8B1",
"U@	c #BCBDC1",
"V@	c #B5B6B7",
"W@	c #9DA8B4",
"X@	c #7D90A1",
"Y@	c #7F94A6",
"Z@	c #869FB2",
"`@	c #8298A9",
" #	c #97A7B4",
".#	c #ACB4B7",
"+#	c #939BA3",
"@#	c #899AAA",
"##	c #89A1B6",
"$#	c #7C91A5",
"%#	c #7C91A3",
"&#	c #7E93A5",
"*#	c #8298AC",
"=#	c #778C9F",
"-#	c #7B93A5",
";#	c #A1BED5",
">#	c #AECCE4",
",#	c #FBFBFB",
"'#	c #BBB8BA",
")#	c #EFF0F2",
"!#	c #E2E6EC",
"~#	c #B1C8DC",
"{#	c #AECAE0",
"]#	c #B5CFE2",
"^#	c #F2F3F5",
"/#	c #EFEFEE",
"(#	c #E2E9ED",
"_#	c #A8C5DE",
":#	c #A7C5DC",
"<#	c #A5C3DA",
"[#	c #A5C3D9",
"}#	c #A8C7DF",
"|#	c #A3C2D9",
"1#	c #A6C4DC",
"2#	c #A9C8E0",
"3#	c #B0CFE7",
"4#	c #CACACA",
"5#	c #E2E3E3",
"6#	c #DBDDE1",
"7#	c #DADBE4",
"8#	c #E7E8EC",
"9#	c #EDECEF",
"0#	c #C5D1DF",
"a#	c #A5BDD4",
"b#	c #A8C6DA",
"c#	c #A9C5DA",
"d#	c #DEE4EB",
"e#	c #ECECEB",
"f#	c #D2DAE3",
"g#	c #A1BCD5",
"h#	c #A5C5DC",
"i#	c #A3C0D9",
"j#	c #A5C4DC",
"k#	c #A2BFD7",
"l#	c #A3C0D8",
"m#	c #9FBCD3",
"n#	c #A1C0D7",
"o#	c #AFCFE8",
"p#	c #FDFDFD",
"q#	c #BFBEC0",
"r#	c #B7B7BA",
"s#	c #ADADB4",
"t#	c #A2A4A7",
"u#	c #B1B2B6",
"v#	c #B0B2B5",
"w#	c #8892A2",
"x#	c #7E95A6",
"y#	c #8498AC",
"z#	c #95A3AE",
"A#	c #8F9AA6",
"B#	c #8395AA",
"C#	c #7B91A5",
"D#	c #839BB0",
"E#	c #829BAF",
"F#	c #7B91A3",
"G#	c #7E94A7",
"H#	c #8096AB",
"I#	c #718799",
"J#	c #819AAE",
"K#	c #AFCEE6",
"L#	c #F5F5F8",
"M#	c #E8EAF3",
"N#	c #F2F4F8",
"O#	c #F5F6FA",
"P#	c #EBEEF5",
"Q#	c #BECEE3",
"R#	c #AEC9E1",
"S#	c #AECDE5",
"T#	c #ADCCE6",
"U#	c #ADCBE7",
"V#	c #ADCEE8",
"W#	c #AECFE9",
"X#	c #AECEE8",
"Y#	c #ADCDE7",
"Z#	c #ACCCE7",
"`#	c #ACCDE6",
" $	c #ACCCE4",
".$	c #AFC9E2",
"+$	c #C0BFBF",
"@$	c #B5B6B6",
"#$	c #BCBBBB",
"$$	c #B8BABE",
"%$	c #ACACB4",
"&$	c #B8B9BD",
"*$	c #B5B7BA",
"=$	c #ACAEB3",
"-$	c #919AA9",
";$	c #8698AB",
">$	c #7B91A2",
",$	c #869FB1",
"'$	c #849BB0",
")$	c #8299AE",
"!$	c #86A0B6",
"~$	c #95B0C7",
"{$	c #99B5CC",
"]$	c #91ACC3",
"^$	c #93AEC4",
"/$	c #91AAC0",
"($	c #96AAC2",
"_$	c #B6C5DA",
":$	c #EFF0F6",
"<$	c #EAEDF5",
"[$	c #F1F3F8",
"}$	c #F5F5FA",
"|$	c #DEE4EF",
"1$	c #C0CFE3",
"2$	c #B2C8DF",
"3$	c #AEC7DF",
"4$	c #AEC8E1",
"5$	c #ADC9E2",
"6$	c #ACC7E0",
"7$	c #ACC5DE",
"8$	c #AEC4DC",
"9$	c #B7C8DE",
"0$	c #CFD8E8",
"a$	c #F0F2F8",
"b$	c #FCFBFC",
"c$	c #838383",
"d$	c #8D8D8D",
"e$	c #87888B",
"f$	c #B1B3BA",
"g$	c #606063",
"h$	c #88898C",
"i$	c #C0C4CB",
"j$	c #969DA8",
"k$	c #4E545B",
"l$	c #B8C7D9",
"m$	c #C0CEE2",
"n$	c #6C747F",
"o$	c #707780",
"p$	c #DCE2ED",
"q$	c #ECEFF5",
"r$	c #F1F2F7",
"s$	c #F3F5FA",
"t$	c #FDFDFC",
"u$	c #797979",
"v$	c #D4D4D4",
"w$	c #F4F6F8",
"x$	c #5E5E62",
"y$	c #ECEEF6",
"z$	c #CDCED2",
"A$	c #B0B2B4",
"B$	c #747577",
"C$	c #B7B9BD",
"D$	c #DDDFE5",
"E$	c #737477",
"F$	c #F2F4F9",
"G$	c #EFF1F7",
"H$	c #EDEFF6",
"I$	c #EDEFF7",
"J$	c #BDBDBD",
"K$	c #DBDBDB",
"L$	c #656565",
"M$	c #646464",
"N$	c #88888B",
"O$	c #84858A",
"P$	c #67686C",
"Q$	c #ACAEB2",
"R$	c #A3A4A8",
"S$	c #ADAFB3",
"T$	c #A2A4A8",
"U$	c #85878B",
"V$	c #E9EBF4",
"W$	c #E8EBF3",
"X$	c #EFF0F7",
"Y$	c #DEDEDE",
"Z$	c #7A7A7A",
"`$	c #8A8B8C",
" %	c #C9CACF",
".%	c #ABACB2",
"+%	c #C5C7CE",
"@%	c #838489",
"#%	c #C4C6CE",
"$%	c #848589",
"%%	c #ECEEF5",
"&%	c #F2F3F7",
"*%	c #F7F8F9",
"=%	c #E0E0E0",
"-%	c #848484",
";%	c #8E8E8E",
">%	c #D3D3D3",
",%	c #D1D1D1",
"'%	c #C2C2C2",
")%	c #C5C5C5",
"!%	c #BBBBBB",
"~%	c #989898",
"{%	c #767676",
"]%	c #6D6D6D",
"^%	c #6B6B6B",
"/%	c #6C6C6C",
"(%	c #6E6E6E",
"_%	c #707070",
":%	c #727272",
"<%	c #737373",
"[%	c #747474",
"}%	c #757575",
"|%	c #777777",
"1%	c #7C7C7C",
"2%	c #7D7D7D",
"3%	c #7F7F7F",
"4%	c #828282",
"      . + @ # $ % & * = - ; > , ' ) ! ~ {                       ",
"    ] ^ / ( ] _ : < [ } | 1 2 3 @ 4 5 6 7 8                     ",
"    9 0 a b c d e f g h i j k l m n o p q r s                   ",
"    t u v w x d & y z A B = C D E F G H I J K L                 ",
"    M N 9 O P Q 2 R S T U V W X Y Z `  ...+.@.#.$.              ",
"    %.k &.*.B =.-.;.>.,.'.).!.~.{.].^./.(._.:.4 <.[.            ",
"    < =._ }.=.|.1.2.=.3.4.5.6.7.8.9.0.a.w b.:.:.c.d.e.          ",
"    < * _ f.=.g.-.h.i.j.k.l.m.n.o.p.q.r.s.t.u.a v.w.x.y.        ",
"    M z.A.B.C.D.E.z.F.G.H.I.J.K.L.M.N.O.P.Q.R.S.T.U.V.W.        ",
"    < *.v.X.Y.Z.`. +.+++@+#+$+%+&+*+=+-+;+>+,+,+'+M )+!+        ",
"    ~+}.v.{+]+^+/+(+_+:+<+&+[+}+|+1+2+3+4+5+6+7+8+b.$ 9+        ",
"    0+}.a+b+c+d+e+f+g+h+i+j+k+l+m+n+o+p+q+r+s+t+u+l u v+        ",
"    w+f.w x+y+z+A+B+C+D+E+F+G+H+I+J+K+L+M+N+O+P+Q+R+S+T+        ",
"    Q B.U+V+W+X+Y+Z+`+ @.@+@@@#@$@%@&@*@=@-@;@>@,@'@)@!@        ",
"    ~@X.{@:.]@^@/@(@_@:@<@<@[@}@B.B.|@f.1@1@2@3@4@5@6@7@        ",
"    ~@8@9@:.0@a@b@c@d@e@f@g@h@i@j@k@l@m@n@o@p@q@r@s@t@u@        ",
"    f {+9@:.v@w@x@y@z@A@B@C@D@E@F@G@H@I@J@K@L@L@M@N@O@P@        ",
"    Q@b+R@:.S@T@U@V@W@X@Y@Z@`@ #.#+#@###$#%#&#*#=#-#;#>#        ",
"    . ,#R@:.'#T@y+)#!#~#{#K@]#^#/#* (#_#:#<#[#}#|#1#2#3#        ",
"    4#x+R@:.5#6#7#8#9#0#a#b#c#d#B e#f#g#h#i#j#k#l#m#n#o#        ",
"    . p#9@:.q#r#s#t#u#v#w#`@x#y#z#A#B#C#D#E#F#G#H#I#J#K#        ",
"    { V+9@:.x+b+L#M#N#O#P#Q#R#S#T#U#V#W#X#Y#Y#Y#Z#`# $.$        ",
"    { :.9@:.+$@$#$$$%$&$*$=$-$;$>$,$'$)$!$~${$]$^$/$($_$        ",
"    0 :.R@:.p#,#,#,#:$<$[$}$O#|$1$2$3$4$5$5$6$7$8$9$0$a$        ",
"    ) :.R@:.V+b$u c$d$e$f$g$N#O#h$i$j$k$l$m$n$o$p$q$r$s$        ",
"    ~ :.R@:.V+t$u$v$x+x+w$x$y$a$h$z$A$B$C$D$E$h$F$G$H$I$        ",
"  J$K$:.9 :.:.p#L$p#p#p#p#M$N$O$P$R Q$R$e$S$T$U$y$V$W$X$        ",
"  d Y$:.w.:.:.V+Z$) p#p#}.L$p#x+`$ %.%+%P$@%#%$%%%&%*%x+        ",
"  ] =%:.w.:.:.V+@ -%;%;%4#L$p#p#;%v$~+>%~+~+>%d$,#b+,#x+        ",
"  & j :.w.:.:.:.:.:.:.:.:.:.:.:.:.:.:.:.:.:.:.:.:.:.:.:.        ",
"  w+Q@,%c P x ( ( ( '%'%x x x x f f f )%)%f f f f % !%f         ",
"    {@~%U.{%]%^%^%/%(%_%:%<%<%[%}%|%u$1%2%2%3%4%4%1%            "};
